<svg id="ejyEhMDQXxU1" xmlns="http://www.w3.org/2000/svg" xmlns:xlink="http://www.w3.org/1999/xlink" viewBox="0 0 750 500" shape-rendering="geometricPrecision" text-rendering="geometricPrecision"><rect width="750.000004" height="294.369621" rx="0" ry="0" transform="matrix(1 0 0 1.055401-.000002 0)" fill="#e8a884" stroke-width="0"/><g transform="translate(-.000002 0.000001)"><g transform="matrix(-1 0 0 1 750 10.000001)"><path d="M3.160966,49.66263c0,0,11.135436,6.454428,21.242393,7.966709s19.598134-9.701652,30.162137-6.615913s29.510132,28.093483,37.035092,28.093483s22.881907-12.586213,38.539106-5.783348s15.657199,22.797539,24.097118,16.783348s8.904916,0,21.78503-3.95396s19.904513,18.086053,23.444928,18.363818s10.033912-7.680691,28.723125-3.445083s21.374448,15.256084,29.906696,17.412643s11.035437-2.156559,31.337176,2.787308s36.849675,12.651583,36.849675,12.651583l-55.086287,34.165079L3.160946,109.415331l.00002-59.752701Z" transform="translate(-3.160952 14)" fill="#f6b576" stroke-width="1.5"/><path d="M0,70.126426c0,0,16.416125,9.592767,23.975838,9.980483s14.129864-7.293014,24.052168-7.293014s15.355143,20.954573,23.429565,18.065377C85.793568,79.871248,91.751465,84.502541,99.450995,86.1211s14.354174,19.776161,21.678144,20.206668s20.290935-14.769588,29.946721-10.600048s9.655786,12.248674,26.801577,13.718466s14.571009-.933166,23.491199-.933166s98.369104,20.693301,98.369104,20.693301l-39.201428,17.978491L0,109.51302v-39.386594Z" transform="translate(0 24)" fill="#f8bd85" stroke-width="1.5"/><path d="M0.000014,100.923607c0,0,11.088056,4.405167,16.171728,5.442258s12.6708.422733,17.473184,1.363249s8.203231,6.163103,14.38308,6.668689s17.755868-4.357524,25.960927-2.769514s17.381926,10.236874,25.462062,11.733569s15.569697-2.412674,24.977081-1.996308s29.43382,4.255972,36.30357,5.119795s5.156474-.433908,8.688958.897526s2.272696,1.86469,6.589369,2.370613s4.316674-1.039179,10.632354-1.039179s95.972821,12.307997,95.972821,12.307997l-79.757849,16.746969L0,157.76927l.000014-56.845663Z" transform="matrix(1 0 0 0.962298 0 18.778675)" fill="#ffc690" stroke-width="1.5"/></g><g transform="matrix(1.161496 0 0 1 0 33.000001)"><path d="M0.000014,48.463799c0,0,2.310481,2.519094,10.02721,2.519094s7.716729-2.519094,14.127041-2.82344c14.325078.304346,13.480253,21.020394,27.777842,21.020394c10.057922,0,3.723601-4.233417,17.452015-4.233417s19.825579,16.529596,25.74708,16.995974s14.340324-3.252632,16.789568-4.762557s5.014449-3.170891,9.317062-2s1.976527-1,11.023132-1s11.050922,15.457159,17.183723,16.906302s7.585588-5.973242,17.452256-5.973242s10.731285,8.080253,16.558452,9.101098s11.966172-4.233852,22.91392-2.233852s11.941357,8.602345,23.133533,11.675492s22.829457.510555,39.007502,1.999999s35.000252,6.289829,35.000252,6.289829-11.921798,17.553279-11.921798,17.553279l-15.054969,15.927332L-0.000002,109.060742l.000016-60.596943Z" transform="matrix(1 0 0 1.382169 0.000002-29.804345)" fill="#f6b576" stroke-width="1.5"/><path d="M0.000016,78.53407c0,0,3.419301-5.43379,4.884715-7.762557c12.859226,1.956206,24.376563,13.906302,30.194823,13.906302s14.873632-11.283496,26.608899-6.735411s9.851431,15.308143,17.788076,19.713241s17.91115-10.254789,28.109676-7.44164s20.80014,16.133983,32.367349,19.299015s11.413811.239823,29.909304-1.567549s63.790828,12.919697,83.337243,13.874045s45.876045-3.096542,45.876045-3.096542l-38.539834,28.461838L0,109.51302l.000016-30.97895Z" transform="matrix(1 0 0 1.121335 0-4.18373)" fill="#f8bd85" stroke-width="1.5"/><path d="M0.000014,95.727712c0,0,12.955941,7.016769,21.360652,7.48629s23.300429-8.568024,32.636629-7.48629s14.863244,9.686457,23.646425,12.851629s10.777761-.933676,24.091655,0s14.340894,8.366127,25.007636,12.366126c2.260084.847525,12.573824.000006,20.58206.000002s11.718757,5.759145,21.735192,6.697139c2.098525.196517,7.133777-3.368394,12.796698-2.697141s10.068299,2.244914,13.839201,2.697141s7.266738-.465687,11.118163,0s12.935741,4.890369,17.496663,7.176905s58.30416,6.202789,58.30416,6.202789l-79.757849,16.746969L0,157.76927l.000014-62.041558Z" transform="matrix(1 0 0 0.581604 0 58.031065)" fill="#ffc690" stroke-width="1.5"/></g><path d="M0.000012,151.853608c0,0,11.102958-1.708184,15.508556-1.668796s8.682148.597625,12.546514,1.0231s8.564774-.222636,12.689677-.157654s9.383937.71448,14.649822.80335-1.831571-.572594,20.270445-1.80335s73.028041,5.856459,97.646173,1.392856s28.499171-6.132575,37.356709-7.635737c1.723757-.292529,3.301726-.536692,4.772957-.7496c6.088702-.881122,10.34925-1.226947,15.549345-2.2504c6.456607-1.270753,15.539015-7.130559,21.791265-8.923324s12.229651-2.792004,19.528777-4.348884s50.336356-15.053248,79.741936-17.436839c17.387068-1.409381,45.197015,6.297547,76.138072,8.92294c21.387475,1.814759,44.271004-1.763352,66.242312-.317617c53.756992,3.537265,105.221913,32.801293,143.21091,26.52316s112.356516-1.712351,112.356516-1.712351v30.986457L503.093375,189.270882L346.951378,169.577581L211.22613,201.102189L0.00001,196.163536l.000002-44.309928Z" transform="matrix(1 0 0 0.704506 0.000002 72.619874)" fill="#eca372" stroke-width="1.5"/><g transform="translate(0 0.000001)"><path d="M0,174.500912c0,0,19.477638,3.646691,29.546487,4.053783s26.616615-2.104068,37.299636-2.073426s21.22163,3.699755,33.799678,2.073426s25.875296-4.657363,37.184953-8.869777s17.574382-7,31.288315,6.796351c8.56431,5.019637,9.835084-3.903695,23.679307-3.903695s26.371543,3.242832,34.501929,1.923338s20.370596.481041,27.938513-1.815994s11.955213-1.287785,21.991348-4.212413s23.838008-11.602161,43.962775-15.45021c5.902719-1.128657,25.873559,5.544485,37.232152,4.23279c5.18152-.598364,10.620342-3.193573,16.033296-3.765372c5.910772-.624386,11.7907-.220859,17.271082-.763046c16.008893-1.583796,31.265264-8.062612,48.305863,1.295628c16.388272,9,16.388272-3.389894,28.264909,12.41624c9.940749,11.987543,33.256396,3.296477,63.163331,6.246383s79.917699-.899925,104.731253-4.25884s26.718318-7.592838,42.347598-7.241268s15.564886,2.916254,27.183523,5.241268s44.274052-3.74116,44.274052-3.74116l-.000004,53.887998-268.036203,20.272398-151.100072-25.911818-119.637593,40.639351h-211.226132L0,174.500912Z" transform="translate(.000004 21.000006)" fill="#ebb58d" stroke-width="1.5"/><path d="M0.000008,221.371914c0,0,5.999046-2.799009,30.51139-2.799009s25.686939,2.798992,36.334725.538733s8.818901-8.178139,25.465543-12.342132s28.829103.742219,41.872903,0s25.107345-5.130341,44.9345-5.130341s28.483811,16.275463,48.052738,14.933757s50.325373-27.859271,72.844259-34.136071s45.528317-.861337,74.983937,2.064048c13.83997,1.374516,36.42415-.70718,60.657016,5.181591c27.34196,6.644303,29.282445,19.211947,57.676816,22.251009s94.110569-17.819821,127.292832-20.6933c25.260063-1.969331,25.260063,4.923324,48.458653,4.923324c23.162052-.319515,20.593047-6.892655,42.808974-6.892655s38.105706,6.892655,38.105706,6.892655l-.000004,32.037534-92.227544-1.528862-172.06863,37.648919-133.177474-47.748199-104.052936,39.030968-60.790033-.000001-66.56354-9.184945L-0.000004,262.331001l.000012-40.959087Z" transform="translate(.000004 7.000013)" fill="#efc599" stroke-width="1.5"/><path d="M0.000001,240.293328c0,0,15.132644-.918839,20.609525,0s13.903002,4.125614,13.903002,4.125614s9.636363-3.777152,14.124163-5.125619s14.080943-2.306219,14.080943-2.306219s7.441448-6.572612,12.947387-8.786044s16.646642-2.528866,16.646642-2.528866s12.100005-10.099279,28.808173-10.099279s38.172075,8.602494,38.172075,8.602494s17.183747-.141504,28.391465,4.025651c3.152556,1.172155,10.850003,6.329789,10.850003,6.329789s7.399747.640754,11.508063,1.762474c3.662515,1,8.613072,4.000005,8.613072,4.000005s4.120544-3.306224,9.895558-4.306224c4.391527-.760436,11.499556-.599587,11.499556-.599587s3.939481-4.653854,15.189189-8.715319c11.623972-4.196585,27.088753-6.300291,27.088753-6.300291s10.406718-9.35636,19.933319-10.397623c9.149081-1,9.149082-1.751415,9.149082-1.751415s1.517175-1.453349,8.898991-5.453353c5.30337-2.873751,18.370262-2.667331,18.370262-2.667331s14.796256-2.839365,33.366164,0c8.890381,1.359352,43.399179,17.851852,43.399179,17.851852s12.636922-.381122,17.725674.448142s15.524648,9.057242,15.524648,9.057242s17.28781,7.212773,22.978367,9.212777s12.748259,10.029357,19.690834,10.746748s8.897501-2.747877,22.081212-7.975244c6.195677-2.456598,18.018269-3.771504,18.018269-3.771504s8.516583-3.758408,21.107264-7.938535s22.742053-4.180127,22.742053-4.180127s28.076289-9.201798,32.051164-9.980621c13.262611-2.598631,21.506802,0,21.506802,0s6.918474-4.598631,17.015873-4.598631s15.67363,2,15.67363,2s5.466934-4.204764,16.586311-4.204764s19.074725,4.204764,19.074725,4.204764s17.719868-1.164058,25.655773-.040786s27.122831,6.639421,27.122831,6.639421v19.414185l-67.853329-3.253437-185.199843,40.643267-144.42048-46.175874-135.883749,49.326045-95.52276-37.23378-84.607308,30.630786h-36.512535l.000008-30.630783Z" transform="translate(.000007 3.000003)" fill="#f3d4a6" stroke-width="1.5"/></g></g><g transform="translate(0 40.000001)"><path d="M464.728112,226.516327c0,0,138.284596-59.239304,186.950094-59.746811s98.321797,9.803399,98.321797,9.803399l-.000004,111.628747-172.95309,26.487451-112.318797-88.172786Z" transform="matrix(1 0 0 0.76995 0.000001 50.719882)" fill="#c65654" stroke-width="1.5"/><path d="M239.521305,234.901687c0,0,41.015716-17.595599,59.882402-28.482743s36.890515-29.236252,49.219703-37.721565s22.728584-18.238672,31.769481-18.238672c10.246296,0,10.246295,6.25837,17.497155,12.244637s35.356914,15.81076,49.544573,25.497715s28.700856,32.262131,54.33327,49.326046s105.511339,66.411978,105.511339,66.411978L474.311376,323.557045L288.52345,288.201662l-49.002145-53.299975Z" transform="matrix(1.477371 0 0 0.800628-215.030045 46.308066)" fill="#e1706e" stroke-width="1.5"/><path d="M0,204.953973c0,0,23.162063,1.679791,36.512534,0s37.188193-7.161318,51.534398-13.176993s33.183529-23.334891,43.230615-26.135919s12.738262.771493,18.398178,0s4.201638-4.340684,16.144943-4.340684s20.333151,8.242492,31.026792,12.277925s6.481536.622687,35.085194,9.410683s99.827609,111.602038,99.827609,111.602038L-0.000001,310L0,204.953973Z" transform="matrix(.809215 0 0 0.697044 0.000001 72.741953)" fill="#c65654" stroke-width="1.5"/></g><g transform="translate(.000004 0)"><path d="M0,208.201661c0,0,27.664353,7.7785,48.636697,6.389359s55.827673-17.824718,82.64085-23.666909s69.422041-10.982175,95.89426-7.432199s48.699534,23.015437,72.565932,24.709749s45.317685-11.940803,65.68888-10.674556s43.183746,3.028504,61.450888,10.674556s70.069324,26.487451,70.069324,26.487451L260.536311,365.764256L-0.000001,263.557046L0,208.201661Z" transform="translate(.000001 80.000003)" fill="#511d37" stroke-width="1.5"/><path d="M255.238817,349.395967c0,0,171.348605-112.151163,226.724975-125.456885s76.492795-9.348061,95.083113-9.348061s29.900042-17.063915,43.57976-17.063915s31.568082,5.332055,43.57976,0s29.244704-9.405876,43.213364-13.205988s42.58021,6.602994,42.58021,6.602994v72.632934L419.895651,397.725092L299.737735,385.052134l-44.498918-35.656167Z" transform="translate(.000005 80.000002)" fill="#5d233f" stroke-width="1.5"/></g><g transform="translate(0 1.07592)"><path d="M312.927151,397.725092c0,0,48.136745-24.766177,68.671137-31.960838s49.116368-10.548921,67.350539-16.368287s36.689741-15.976689,54.14455-21.591331s42.899332-8.405285,62.068144-15.385435s44.781312-24.363133,64.70934-31.694371s49.31314-10.86064,67.350539-17.167785s52.7786-23.770776,52.7786-23.770776v96.403712L496.946831,437.55595l-184.01968-39.830858Z" transform="translate(0 60.000002)" fill="#6e2934" stroke-width="1.5"/><path d="M-0.000002,249.602073c0,0,106.344919,6.158162,154.455298,23.199166s112.936114,77.926796,158.471855,93.762514s96.07653,7.774767,136.021676,18.488383s128.098083,53.871944,128.098083,53.871944h-157.151254L-0.000002,372.81314v-123.211067Z" transform="translate(0 60)" fill="#8c3241" stroke-width="1.5"/><path d="M750,312.419203C541.954157,375.926142,399.078615,426.220311,346.520495,468.92408h403.479505v-156.504877Z" transform="translate(0 30)" fill="#531925" stroke-width="1.5"/><path d="M0,327.804638c183.381016,33.951031,399.674091,87.28126,495.151681,141.119442h-495.15168L0,327.804638Z" transform="translate(-.000002 30)" fill="#6e2934" stroke-width="1.5"/></g><path d="M0,437.55595c0,0,10.429851-39.830858,15.50857-39.830858-10.201926,18.334637-7.801473,50.695867-7.801473,50.695867s4.429466-32.291747,12.902436-41.857644c-8.47297,25.258294,0,47.760004,0,47.760004s-2.97363-22.571193,4.200793-38.26359c0,27.410554,5.701076,32.36123,5.701076,32.36123s-1.17329-16.236441,6.001133-24.754415c-7.174423,14.321798,0,37.067636,0,37.067636s30.134649,6.52705,65.017515,20.794332c25.061476,0,125.641758,11.855556,125.641758,11.855556s273.394896,0,385.023023,0c61.315216-5.24957,99.699467-23.331266,99.699467-23.331266s2.847412-21.631843-4.474504-32.496852c12.027479,6.056598,15.457379,28.022348,15.457379,28.022348s0-8.847848,0-37.829902c6.51553,16.668833,11.233052,32.985784,11.233052,32.985784s-.461018-28.982054-5.131455-44.674451c8.738169,15.692397,12.203194,38.26359,12.203194,38.26359s-.813546-38.26359-7.071739-56.598227C742.809057,406.563315,750,460.73418,750,460.73418L750,500h-750v-62.44405Z" transform="matrix(1 0 0 0.91501 0 42.495)" fill="#150a17" stroke-width="1.5"/></svg>