<?xml version="1.0" encoding="UTF-8" standalone="no"?>
<!DOCTYPE svg PUBLIC "-//W3C//DTD SVG 1.1//EN" "http://www.w3.org/Graphics/SVG/1.1/DTD/svg11.dtd">
<!-- Created with Vectornator (http://vectornator.io/) -->
<svg height="100%" stroke-miterlimit="10" style="fill-rule:nonzero;clip-rule:evenodd;stroke-linecap:round;stroke-linejoin:round;" version="1.1" viewBox="0 0 24 24" width="100%" xml:space="preserve" xmlns="http://www.w3.org/2000/svg" xmlns:xlink="http://www.w3.org/1999/xlink">
<defs/>
<g id="Untitled">
<path d="M6 2C4.89 2 4 2.89 4 4L4 12C4 13.11 4.89 14 6 14L18 14C19.11 14 20 13.11 20 12L20 4C20 2.89 19.11 2 18 2L6 2M6 4L18 4L18 12L6 12L6 4M4 15C2.89 15 2 15.89 2 17L2 20C2 21.11 2.89 22 4 22L20 22C21.11 22 22 21.11 22 20L22 17C22 15.89 21.11 15 20 15L4 15M8 17L20 17L20 20L8 20L8 17M9 17.75L9 19.25L13 19.25L13 17.75L9 17.75M15 17.75L15 19.25L19 19.25L19 17.75L15 17.75Z" fill="#7899a3" fill-rule="evenodd" opacity="1" stroke="none"/>
</g>
</svg>
