<?xml version="1.0" encoding="UTF-8" standalone="no"?>
<!DOCTYPE svg PUBLIC "-//W3C//DTD SVG 1.1//EN" "http://www.w3.org/Graphics/SVG/1.1/DTD/svg11.dtd">
<!-- Created with Vectornator (http://vectornator.io/) -->
<svg height="100%" stroke-miterlimit="10" style="fill-rule:nonzero;clip-rule:evenodd;stroke-linecap:round;stroke-linejoin:round;" version="1.1" viewBox="0 0 24 13" width="100%" xml:space="preserve" xmlns="http://www.w3.org/2000/svg" xmlns:xlink="http://www.w3.org/1999/xlink">
<defs/>
<clipPath id="ArtboardFrame">
<rect height="13" width="24" x="0" y="0"/>
</clipPath>
<g clip-path="url(#ArtboardFrame)" id="Untitled">
<g opacity="1">
<path d="M3.55 19.09L4.96 20.5L6.76 18.71L5.34 17.29M12 6C8.69 6 6 8.69 6 12C6 15.31 8.69 18 12 18C15.31 18 18 15.31 18 12C18 8.68 15.31 6 12 6M20 13L23 13L23 11L20 11M17.24 18.71L19.04 20.5L20.45 19.09L18.66 17.29M20.45 5L19.04 3.6L17.24 5.39L18.66 6.81M13 1L11 1L11 4L13 4M6.76 5.39L4.96 3.6L3.55 5L5.34 6.81L6.76 5.39M1 13L4 13L4 11L1 11M13 20L11 20L11 23L13 23" fill="#7899a3" fill-rule="evenodd" opacity="1" stroke="none"/>
</g>
</g>
</svg>
